<?xml version="1.0" standalone="no"?>
<!DOCTYPE svg PUBLIC "-//W3C//DTD SVG 1.1//EN" "http://www.w3.org/Graphics/SVG/1.1/DTD/svg11.dtd">
<svg width="100%" height="100%" viewBox="0 0 1000 1000" version="1.1" xmlns="http://www.w3.org/2000/svg" xmlns:xlink="http://www.w3.org/1999/xlink" xml:space="preserve" style="fill-rule:evenodd;clip-rule:evenodd;stroke-linejoin:round;stroke-miterlimit:1.41421;">
    <g id="Ebene1">
        <g transform="matrix(2.67849,-5.54779e-17,-5.54779e-17,2.90499,-252.038,-342.492)">
            <path d="M237.722,136.48C297.394,136.48 345.84,181.149 345.84,236.167C345.84,291.186 297.394,335.855 237.722,335.855C178.051,335.855 129.605,291.186 129.605,236.167C129.605,181.149 178.051,136.48 237.722,136.48ZM237.722,146.33C291.498,146.33 335.157,186.585 335.157,236.167C335.157,285.75 291.498,326.005 237.722,326.005C183.947,326.005 140.288,285.75 140.288,236.167C140.288,186.585 183.947,146.33 237.722,146.33Z" style="fill:rgb(255,204,0);"/>
        </g>
        <g transform="matrix(18.2935,0,0,18.2935,-952.376,328.75)">
            <path d="M74.372,19.537C74.387,26.703 80.183,32.502 87.351,32.514C94.518,32.502 100.312,26.703 100.327,19.537C100.312,12.372 94.518,6.573 87.351,6.559C80.183,6.573 74.387,12.372 74.372,19.537M71.381,19.537C71.383,10.716 78.529,3.569 87.351,3.567C96.17,3.569 103.316,10.716 103.318,19.537C103.316,28.357 96.17,35.506 87.351,35.506C78.529,35.506 71.383,28.357 71.381,19.537" style="fill:rgb(221,0,102);fill-rule:nonzero;"/>
        </g>
        <g transform="matrix(18.2935,0,0,18.2935,-952.376,328.75)">
            <path d="M82.332,22.55L86.325,17.987L90.543,17.987L87.624,21.06L93.522,21.06L93.522,24.038L87.91,24.038L90.733,26.767L86.42,26.767L82.332,22.55Z" style="fill:rgb(255,204,0);fill-rule:nonzero;"/>
        </g>
        <g transform="matrix(18.2935,0,0,18.2935,-952.376,328.75)">
            <path d="M66.719,25.001L64.141,25.001L65.828,23.37L62.473,23.37L62.473,21.589L65.999,21.589L64.254,19.751L66.777,19.751L69.163,22.48L66.719,25.001Z" style="fill:rgb(255,204,0);fill-rule:nonzero;"/>
        </g>
        <g transform="matrix(18.2935,0,0,18.2935,-952.376,328.75)">
            <path d="M58.886,24.832C58.895,30.414 63.41,34.928 68.99,34.939C74.573,34.928 79.087,30.414 79.097,24.832C79.087,19.25 74.573,14.736 68.99,14.726C63.41,14.736 58.895,19.25 58.886,24.832M58.287,24.832C58.287,18.919 63.079,14.127 68.99,14.127C74.905,14.127 79.694,18.919 79.696,24.832C79.694,30.744 74.905,35.535 68.99,35.535C63.079,35.535 58.287,30.744 58.287,24.832" style="fill:rgb(221,0,102);fill-rule:nonzero;"/>
        </g>
        <g transform="matrix(18.2935,0,0,18.2935,-952.376,328.75)">
            <path d="M76.589,19.538C76.599,25.48 81.406,30.287 87.349,30.297C93.291,30.287 98.098,25.48 98.11,19.538C98.098,13.595 93.291,8.786 87.349,8.776C81.406,8.786 76.599,13.595 76.589,19.538M75.99,19.538C75.99,13.263 81.075,8.178 87.349,8.178C93.623,8.178 98.706,13.263 98.708,19.538C98.706,25.81 93.623,30.896 87.349,30.896C81.075,30.896 75.99,25.81 75.99,19.538" style="fill:rgb(221,0,102);fill-rule:nonzero;"/>
        </g>
        <g transform="matrix(2.98171,-6.17585e-17,-6.17585e-17,3.23386,-324.121,-420.159)">
            <path d="M237.722,136.48C297.394,136.48 345.84,181.149 345.84,236.167C345.84,291.186 297.394,335.855 237.722,335.855C178.051,335.855 129.605,291.186 129.605,236.167C129.605,181.149 178.051,136.48 237.722,136.48ZM237.722,139.842C295.382,139.842 342.194,183.004 342.194,236.167C342.194,289.331 295.382,332.493 237.722,332.493C180.063,332.493 133.251,289.331 133.251,236.167C133.251,183.004 180.063,139.842 237.722,139.842Z" style="fill:rgb(255,204,0);"/>
        </g>
        <g id="g4109" transform="matrix(2.71067,0,0,2.50884,-3136.77,197.22)">
            <g id="g41091">
                <g id="g41092">
                    <g transform="matrix(-0.58091,0,0,0.58091,1957.9,-33.1232)">
                        <clipPath id="_clip1">
                            <rect x="1088.41" y="-11.524" width="45.854" height="344.476"/>
                        </clipPath>
                        <g clip-path="url(#_clip1)">
                            <g id="path4099" transform="matrix(1,0,0,0.698272,2.27374e-13,44.1161)">
                                <clipPath id="_clip2">
                                    <rect x="1088.41" y="146.212" width="90.817" height="267.432"/>
                                </clipPath>
                                <g clip-path="url(#_clip2)">
                                    <path d="M1117.82,497.058C1132.5,505.888 1138.61,505.285 1153.89,497.058L1143.68,230.083L1179.2,155.906C1180.75,149.279 1119.53,140.243 1090,154.168C1089.04,154.984 1088.64,156.036 1089.07,157.433L1125.09,230.083L1117.82,497.058Z" style="fill:rgb(221,0,102);fill-rule:nonzero;"/>
                                </g>
                            </g>
                            <g id="path4103" transform="matrix(1,0,0,1.02043,2.27374e-13,-3.1372)">
                                <path d="M1096,149.226C1114.16,144.497 1149.35,145.012 1167.96,147.277C1175.01,141.637 1176.9,134.34 1175.79,132.849C1157.04,117.494 1094.45,128.308 1089.63,131.672C1089.02,132.098 1089.11,132.657 1089.08,132.849C1088.89,133.995 1092.3,142.513 1094.66,148.764C1094.72,148.926 1095.08,149.384 1096,149.226L1096,149.226Z" style="fill:rgb(221,0,102);fill-rule:nonzero;"/>
                            </g>
                            <g id="path4105" transform="matrix(1.07262,0,0,1.00259,-82.3442,-1.19394)">
                                <path d="M1102.26,128.02C1116.16,125.39 1120.68,125.077 1134.06,124.375C1139.23,124.103 1137.47,-9.431 1134.06,-10.207C1133.6,-10.31 1132.41,-10.153 1131.51,-8.732L1130.96,46.838L1128.67,57.045L1126.47,104.789C1112.54,106.755 1101.1,110.978 1098.77,113.369C1098.39,113.762 1098.44,114.217 1098.46,114.529C1098.56,116.512 1101.19,126.656 1101.57,127.54C1101.69,127.834 1101.99,128.071 1102.26,128.02Z" style="fill:rgb(221,0,102);fill-rule:nonzero;"/>
                            </g>
                        </g>
                    </g>
                    <g transform="matrix(0.58091,0,0,0.58091,640.323,-33.1232)">
                        <clipPath id="_clip3">
                            <rect x="1088.41" y="-11.524" width="45.854" height="344.476"/>
                        </clipPath>
                        <g clip-path="url(#_clip3)">
                            <g id="path40991" transform="matrix(1,0,0,0.698272,2.27374e-13,44.1161)">
                                <clipPath id="_clip4">
                                    <rect x="1088.41" y="146.212" width="90.817" height="267.432"/>
                                </clipPath>
                                <g clip-path="url(#_clip4)">
                                    <path d="M1117.82,497.058C1132.5,505.888 1138.61,505.285 1153.89,497.058L1143.68,230.083L1179.2,155.906C1180.75,149.279 1119.53,140.243 1090,154.168C1089.04,154.984 1088.64,156.036 1089.07,157.433L1125.09,230.083L1117.82,497.058Z" style="fill:rgb(221,0,102);fill-rule:nonzero;"/>
                                </g>
                            </g>
                            <g id="path41031" transform="matrix(1,0,0,1.02043,2.27374e-13,-3.1372)">
                                <path d="M1096,149.226C1114.16,144.497 1149.35,145.012 1167.96,147.277C1175.01,141.637 1176.9,134.34 1175.79,132.849C1157.04,117.494 1094.45,128.308 1089.63,131.672C1089.02,132.098 1089.11,132.657 1089.08,132.849C1088.89,133.995 1092.3,142.513 1094.66,148.764C1094.72,148.926 1095.08,149.384 1096,149.226L1096,149.226Z" style="fill:rgb(221,0,102);fill-rule:nonzero;"/>
                            </g>
                            <g id="path41051" transform="matrix(1.07262,0,0,1.00259,-82.3442,-1.19394)">
                                <path d="M1102.26,128.02C1116.16,125.39 1120.68,125.077 1134.06,124.375C1139.23,124.103 1137.47,-9.431 1134.06,-10.207C1133.6,-10.31 1132.41,-10.153 1131.51,-8.732L1130.96,46.838L1128.67,57.045L1126.47,104.789C1112.54,106.755 1101.1,110.978 1098.77,113.369C1098.39,113.762 1098.44,114.217 1098.46,114.529C1098.56,116.512 1101.19,126.656 1101.57,127.54C1101.69,127.834 1101.99,128.071 1102.26,128.02Z" style="fill:rgb(221,0,102);fill-rule:nonzero;"/>
                            </g>
                        </g>
                    </g>
                </g>
            </g>
        </g>
    </g>
</svg>
