<?xml version="1.0" standalone="no"?>
<!DOCTYPE svg PUBLIC "-//W3C//DTD SVG 1.1//EN" "http://www.w3.org/Graphics/SVG/1.1/DTD/svg11.dtd">
<svg width="100%" height="100%" viewBox="0 0 3437 1903" version="1.1" xmlns="http://www.w3.org/2000/svg" xmlns:xlink="http://www.w3.org/1999/xlink" xml:space="preserve" style="fill-rule:evenodd;clip-rule:evenodd;stroke-linecap:round;stroke-linejoin:round;stroke-miterlimit:1.41421;">
    <g transform="matrix(4.17064,0,0,4.17064,-523.28,-1078.33)">
        <g transform="matrix(1.45349,0,0,1.45349,-148.477,-163.105)">
            <path d="M237,417C260.732,417 280,436.268 280,460C280,483.732 260.732,503 237,503C213.268,503 194,483.732 194,460C194,436.268 213.268,417 237,417ZM237,422.111C257.912,422.111 274.889,439.088 274.889,460C274.889,480.912 257.912,497.889 237,497.889C216.088,497.889 199.111,480.912 199.111,460C199.111,439.088 216.088,422.111 237,422.111Z" style="fill:rgb(221,0,102);"/>
        </g>
        <g transform="matrix(1.45349,0,0,1.45349,-93.4767,-89.1047)">
            <path d="M237,417C260.732,417 280,436.268 280,460C280,483.732 260.732,503 237,503C213.268,503 194,483.732 194,460C194,436.268 213.268,417 237,417ZM237,422.111C257.912,422.111 274.889,439.088 274.889,460C274.889,480.912 257.912,497.889 237,497.889C216.088,497.889 199.111,480.912 199.111,460C199.111,439.088 216.088,422.111 237,422.111Z" style="fill:rgb(221,0,102);"/>
        </g>
        <g transform="matrix(1.45349,0,0,1.45349,-47.4767,-169.855)">
            <path d="M237,417C260.732,417 280,436.268 280,460C280,483.732 260.732,503 237,503C213.268,503 194,483.732 194,460C194,436.268 213.268,417 237,417ZM237,422.111C257.912,422.111 274.889,439.088 274.889,460C274.889,480.912 257.912,497.889 237,497.889C216.088,497.889 199.111,480.912 199.111,460C199.111,439.088 216.088,422.111 237,422.111Z" style="fill:rgb(221,0,102);"/>
        </g>
        <g transform="matrix(1.45349,0,0,1.45349,52.5233,-200.855)">
            <path d="M237,417C260.732,417 280,436.268 280,460C280,483.732 260.732,503 237,503C213.268,503 194,483.732 194,460C194,436.268 213.268,417 237,417ZM237,422.111C257.912,422.111 274.889,439.088 274.889,460C274.889,480.912 257.912,497.889 237,497.889C216.088,497.889 199.111,480.912 199.111,460C199.111,439.088 216.088,422.111 237,422.111Z" style="fill:rgb(221,0,102);"/>
        </g>
        <g transform="matrix(1.45349,0,0,1.45349,99.5233,-142.855)">
            <path d="M237,417C260.732,417 280,436.268 280,460C280,483.732 260.732,503 237,503C213.268,503 194,483.732 194,460C194,436.268 213.268,417 237,417ZM237,422.111C257.912,422.111 274.889,439.088 274.889,460C274.889,480.912 257.912,497.889 237,497.889C216.088,497.889 199.111,480.912 199.111,460C199.111,439.088 216.088,422.111 237,422.111Z" style="fill:rgb(221,0,102);"/>
        </g>
        <g transform="matrix(1.45349,0,0,1.45349,204.523,-116.855)">
            <path d="M237,417C260.732,417 280,436.268 280,460C280,483.732 260.732,503 237,503C213.268,503 194,483.732 194,460C194,436.268 213.268,417 237,417ZM237,422.111C257.912,422.111 274.889,439.088 274.889,460C274.889,480.912 257.912,497.889 237,497.889C216.088,497.889 199.111,480.912 199.111,460C199.111,439.088 216.088,422.111 237,422.111Z" style="fill:rgb(221,0,102);"/>
        </g>
        <g transform="matrix(1.45349,0,0,1.45349,310.523,-125.855)">
            <path d="M237,417C260.732,417 280,436.268 280,460C280,483.732 260.732,503 237,503C213.268,503 194,483.732 194,460C194,436.268 213.268,417 237,417ZM237,422.111C257.912,422.111 274.889,439.088 274.889,460C274.889,480.912 257.912,497.889 237,497.889C216.088,497.889 199.111,480.912 199.111,460C199.111,439.088 216.088,422.111 237,422.111Z" style="fill:rgb(221,0,102);"/>
        </g>
        <g transform="matrix(1.45349,0,0,1.45349,337.523,-20.8547)">
            <path d="M237,417C260.732,417 280,436.268 280,460C280,483.732 260.732,503 237,503C213.268,503 194,483.732 194,460C194,436.268 213.268,417 237,417ZM237,422.111C257.912,422.111 274.889,439.088 274.889,460C274.889,480.912 257.912,497.889 237,497.889C216.088,497.889 199.111,480.912 199.111,460C199.111,439.088 216.088,422.111 237,422.111Z" style="fill:rgb(221,0,102);"/>
        </g>
        <g transform="matrix(1.45349,0,0,1.45349,442.523,-43.6047)">
            <path d="M237,417C260.732,417 280,436.268 280,460C280,483.732 260.732,503 237,503C213.268,503 194,483.732 194,460C194,436.268 213.268,417 237,417ZM237,422.111C257.912,422.111 274.889,439.088 274.889,460C274.889,480.912 257.912,497.889 237,497.889C216.088,497.889 199.111,480.912 199.111,460C199.111,439.088 216.088,422.111 237,422.111Z" style="fill:rgb(221,0,102);"/>
        </g>
        <g transform="matrix(1.45349,0,0,1.45349,534.523,-112.326)">
            <path d="M237,417C260.732,417 280,436.268 280,460C280,483.732 260.732,503 237,503C213.268,503 194,483.732 194,460C194,436.268 213.268,417 237,417ZM237,422.111C257.912,422.111 274.889,439.088 274.889,460C274.889,480.912 257.912,497.889 237,497.889C216.088,497.889 199.111,480.912 199.111,460C199.111,439.088 216.088,422.111 237,422.111Z" style="fill:rgb(221,0,102);"/>
        </g>
        <g transform="matrix(1.45349,0,0,1.45349,251.523,-215.605)">
            <path d="M237,417C260.732,417 280,436.268 280,460C280,483.732 260.732,503 237,503C213.268,503 194,483.732 194,460C194,436.268 213.268,417 237,417ZM237,422.111C257.912,422.111 274.889,439.088 274.889,460C274.889,480.912 257.912,497.889 237,497.889C216.088,497.889 199.111,480.912 199.111,460C199.111,439.088 216.088,422.111 237,422.111Z" style="fill:rgb(221,0,102);"/>
        </g>
        <g transform="matrix(1.45349,0,0,1.45349,145.023,-243.605)">
            <path d="M237,417C260.732,417 280,436.268 280,460C280,483.732 260.732,503 237,503C213.268,503 194,483.732 194,460C194,436.268 213.268,417 237,417ZM237,422.111C257.912,422.111 274.889,439.088 274.889,460C274.889,480.912 257.912,497.889 237,497.889C216.088,497.889 199.111,480.912 199.111,460C199.111,439.088 216.088,422.111 237,422.111Z" style="fill:rgb(221,0,102);"/>
        </g>
        <g transform="matrix(1.45349,0,0,1.45349,48.0233,-277.855)">
            <path d="M237,417C260.732,417 280,436.268 280,460C280,483.732 260.732,503 237,503C213.268,503 194,483.732 194,460C194,436.268 213.268,417 237,417ZM237,422.111C257.912,422.111 274.889,439.088 274.889,460C274.889,480.912 257.912,497.889 237,497.889C216.088,497.889 199.111,480.912 199.111,460C199.111,439.088 216.088,422.111 237,422.111Z" style="fill:rgb(221,0,102);"/>
        </g>
        <g transform="matrix(1.45349,0,0,1.45349,90.0233,-343.105)">
            <path d="M237,417C260.732,417 280,436.268 280,460C280,483.732 260.732,503 237,503C213.268,503 194,483.732 194,460C194,436.268 213.268,417 237,417ZM237,422.111C257.912,422.111 274.889,439.088 274.889,460C274.889,480.912 257.912,497.889 237,497.889C216.088,497.889 199.111,480.912 199.111,460C199.111,439.088 216.088,422.111 237,422.111Z" style="fill:rgb(221,0,102);"/>
        </g>
    </g>
    <g transform="matrix(4.17064,0,0,4.17064,-523.28,-1078.33)">
        <g>
            <path d="M196,505.5L251,579.5" style="fill:none;stroke-width:1.28px;stroke:black;"/>
            <path d="M196,505.5L297,498.75" style="fill:none;stroke-width:1.28px;stroke:black;"/>
            <g transform="matrix(1,0,0,1,94.25,-6.75)">
                <path d="M202.75,505.5L302.75,474.5" style="fill:none;stroke-width:1.28px;stroke:black;"/>
            </g>
            <g transform="matrix(1,0,0,1,44.25,74)">
                <path d="M206.75,505.5L252.75,424.75" style="fill:none;stroke-width:1.28px;stroke:black;"/>
            </g>
            <g transform="matrix(0.925,0,0,1.37903,209.456,-229.351)">
                <path d="M202.75,505.5L302.75,474.5" style="fill:none;stroke-width:1.09px;stroke:black;"/>
            </g>
            <g transform="matrix(0.975,0,0,-1.1371,194.319,964.552)">
                <path d="M203.263,504.621L302.75,474.5" style="fill:none;stroke-width:1.21px;stroke:black;"/>
            </g>
            <g transform="matrix(0.975,0,0,-1.1371,194.319,898.552)">
                <path d="M246.34,503.961L203.263,446.578" style="fill:none;stroke-width:1.21px;stroke:black;"/>
            </g>
            <g transform="matrix(0.975,0,0,-1.1371,235.819,836.052)">
                <path d="M260.186,361.493L203.776,448.996" style="fill:none;stroke-width:1.21px;stroke:black;"/>
            </g>
            <g transform="matrix(0.975,0,0,-1.1371,335.319,906.552)">
                <path d="M267.365,398.869L158.135,423.493" style="fill:none;stroke-width:1.21px;stroke:black;"/>
            </g>
            <g transform="matrix(0.975,0,0,-1.1371,330.569,969.052)">
                <path d="M224.032,366.989L116.34,389.855" style="fill:none;stroke-width:1.21px;stroke:black;"/>
            </g>
            <g transform="matrix(0.975,0,0,-1.1371,173.319,888.052)">
                <path d="M229.417,369.628L224.801,437.344" style="fill:none;stroke-width:1.21px;stroke:black;"/>
            </g>
            <g transform="matrix(0.975,0,0,-1.1371,388.569,980.302)">
                <path d="M273.263,384.798L164.545,376.883" style="fill:none;stroke-width:1.21px;stroke:black;"/>
            </g>
            <g transform="matrix(0.975,0,0,-1.1371,521.319,933.802)">
                <path d="M28.391,335.989L76.596,422.833" style="fill:none;stroke-width:1.21px;stroke:black;"/>
            </g>
            <g transform="matrix(0.975,0,0,-1.1371,441.819,933.802)">
                <path d="M218.647,343.904L158.135,423.493" style="fill:none;stroke-width:1.21px;stroke:black;"/>
            </g>
            <g transform="matrix(0.975,0,0,-1.1371,500.819,1024.3)">
                <path d="M185.827,331.152L158.135,423.493" style="fill:none;stroke-width:1.21px;stroke:black;"/>
            </g>
            <g transform="matrix(0.975,0,0,-1.1371,480.319,1114.55)">
                <path d="M314.545,430.528L206.853,410.521" style="fill:none;stroke-width:1.21px;stroke:black;"/>
            </g>
            <g transform="matrix(0.975,0,0,-1.1371,668.319,1066.8)">
                <path d="M216.083,448.971L121.724,388.535" style="fill:none;stroke-width:1.21px;stroke:black;"/>
            </g>
            <g transform="matrix(0.975,0,0,-1.1371,194.319,898.552)">
                <path d="M246.34,503.961L203.263,446.578" style="fill:none;stroke-width:1.21px;stroke:black;"/>
            </g>
            <g transform="matrix(0.975,0,0,-1.1371,194.319,898.552)">
                <path d="M246.34,503.961L203.263,446.578" style="fill:none;stroke-width:1.21px;stroke:black;"/>
            </g>
            <g transform="matrix(0.975,0,0,-1.1371,245.319,1032.55)">
                <path d="M250.442,534.301L203.776,445.699" style="fill:none;stroke-width:1.21px;stroke:black;"/>
            </g>
        </g>
        <g>
            <g transform="matrix(1.42105,0,0,1.42105,-34.2763,-145.592)">
                <circle cx="200.75" cy="510.25" r="4.75" style="fill:rgb(255,204,2);stroke-width:1.57px;stroke-linecap:butt;stroke:white;"/>
            </g>
            <g transform="matrix(1.42105,0,0,1.42105,-89.2763,-219.592)">
                <circle cx="200.75" cy="510.25" r="4.75" style="fill:rgb(255,204,2);stroke-width:1.57px;stroke-linecap:butt;stroke:white;"/>
            </g>
            <g transform="matrix(1.42105,0,0,1.42105,11.7237,-226.342)">
                <circle cx="200.75" cy="510.25" r="4.75" style="fill:rgb(255,204,2);stroke-width:1.57px;stroke-linecap:butt;stroke:white;"/>
            </g>
            <g transform="matrix(1.42105,0,0,1.42105,111.724,-257.342)">
                <circle cx="200.75" cy="510.25" r="4.75" style="fill:rgb(255,204,2);stroke-width:1.57px;stroke-linecap:butt;stroke:white;"/>
            </g>
            <g transform="matrix(1.42105,0,0,1.42105,107.224,-334.342)">
                <circle cx="200.75" cy="510.25" r="4.75" style="fill:rgb(255,204,2);stroke-width:1.57px;stroke-linecap:butt;stroke:white;"/>
            </g>
            <g transform="matrix(1.42105,0,0,1.42105,204.224,-300.092)">
                <circle cx="200.75" cy="510.25" r="4.75" style="fill:rgb(255,204,2);stroke-width:1.57px;stroke-linecap:butt;stroke:white;"/>
            </g>
            <g transform="matrix(1.42105,0,0,1.42105,158.724,-199.342)">
                <circle cx="200.75" cy="510.25" r="4.75" style="fill:rgb(255,204,2);stroke-width:1.57px;stroke-linecap:butt;stroke:white;"/>
            </g>
            <g transform="matrix(1.42105,0,0,1.42105,263.724,-173.342)">
                <circle cx="200.75" cy="510.25" r="4.75" style="fill:rgb(255,204,2);stroke-width:1.57px;stroke-linecap:butt;stroke:white;"/>
            </g>
            <g transform="matrix(1.42105,0,0,1.42105,148.974,-399.592)">
                <circle cx="200.75" cy="510.25" r="4.75" style="fill:rgb(255,204,2);stroke-width:1.57px;stroke-linecap:butt;stroke:white;"/>
            </g>
            <g transform="matrix(1.42105,0,0,1.42105,310.724,-272.092)">
                <circle cx="200.75" cy="510.25" r="4.75" style="fill:rgb(255,204,2);stroke-width:1.57px;stroke-linecap:butt;stroke:white;"/>
            </g>
            <g transform="matrix(1.42105,0,0,1.42105,369.724,-182.342)">
                <circle cx="200.75" cy="510.25" r="4.75" style="fill:rgb(255,204,2);stroke-width:1.57px;stroke-linecap:butt;stroke:white;"/>
            </g>
            <g transform="matrix(1.42105,0,0,1.42105,396.724,-77.3421)">
                <circle cx="200.75" cy="510.25" r="4.75" style="fill:rgb(255,204,2);stroke-width:1.57px;stroke-linecap:butt;stroke:white;"/>
            </g>
            <g transform="matrix(1.42105,0,0,1.42105,501.724,-100.092)">
                <circle cx="200.75" cy="510.25" r="4.75" style="fill:rgb(255,204,2);stroke-width:1.57px;stroke-linecap:butt;stroke:white;"/>
            </g>
            <g transform="matrix(1.42105,0,0,1.42105,593.724,-168.814)">
                <circle cx="200.75" cy="510.25" r="4.75" style="fill:rgb(255,204,2);stroke-width:1.57px;stroke-linecap:butt;stroke:white;"/>
            </g>
        </g>
    </g>
</svg>
